<?xml version="1.0" encoding="utf-8"?>
<!-- Generator: Adobe Illustrator 17.1.0, SVG Export Plug-In . SVG Version: 6.00 Build 0)  -->
<!DOCTYPE svg PUBLIC "-//W3C//DTD SVG 1.1//EN" "http://www.w3.org/Graphics/SVG/1.1/DTD/svg11.dtd">
<svg version="1.1" id="Layer_1" xmlns="http://www.w3.org/2000/svg" xmlns:xlink="http://www.w3.org/1999/xlink" x="0px" y="0px"
	 viewBox="0 0 100 100" enable-background="new 0 0 100 100" xml:space="preserve">
<circle fill="#FFDE17" cx="49.3" cy="49.9" r="42.2"/>
<ellipse transform="matrix(0.8768 0.4809 -0.4809 0.8768 21.8729 -17.418)" fill="#000001" cx="44.9" cy="34" rx="2.5" ry="9.9"/>
<ellipse transform="matrix(0.8688 0.4951 -0.4951 0.8688 31.3652 -26.0695)" fill="#000001" cx="64.9" cy="46.2" rx="2.5" ry="9.9"/>
<path fill="#000001" d="M61.9,70.6c-1.1-2-2.4-3.3-3-3c-0.5,0.3-0.3,1.6,0.4,3.3c-10.1,5.7-23.6-3.3-23.6-3.3s-8-5-9.7-15.7
	c2-0.1,3.5-0.5,3.5-1.1c0-0.7-1.9-1.3-4.3-1.3c-2.4,0-4.3,0.5-4.3,1.1c0,0.6,1.5,1.1,3.5,1.3c0.3,3.5,2.1,13.8,11.8,19.4
	c0,0,11.8,8,23.8,1.1c1,1.7,2.2,2.8,2.7,2.5C63.3,74.5,62.9,72.6,61.9,70.6z"/>
<path fill="#ED1C24" d="M41.4,23.1c0,0-0.8-4,0.9-1.2c0,0,0.1,1.8,1.6,2c0,0,1.4-0.2-0.6-2.6c0,0-2.2-3.5-2.5-5.8
	c0,0-0.6-3.1-2.7-2.8c0,0-2.2,0.6-1.9,4.1c0,0,0.4,1.6-1.6,4.8c0,0-1.2,1.9,0.6,2.3c0,0,1.2,0.5,1.2-1.9c0,0-0.2-1,0.4-2.4
	c0,0,0.7-1.3,0.6,1.5c0,0,0.1,1.2-0.7,2.1c0,0-1.2,2.7-0.5,6.1c0,0,0.3,1.3,1.3,1.3c0,0,1.3-0.2,0.6-4.6c0,0-0.5-3.3,0.3-3.8
	c0,0,0.6-0.7,1.1,1.9l2.2,8.1c1.7,5.2,3.3,17.2,3.3,17.2c0.1,4.1,2.4,3.5,2.4,3.5c1.8-0.6,0.7-3.9,0.7-3.9s-1.2-3.2-2.1-5.2
	C46.1,43.9,41.7,27.2,41.4,23.1z"/>
</svg>
