<?xml version="1.0" encoding="utf-8"?>
<!-- Generator: Adobe Illustrator 18.1.1, SVG Export Plug-In . SVG Version: 6.00 Build 0)  -->
<svg version="1.1" id="Layer_1" xmlns="http://www.w3.org/2000/svg" xmlns:xlink="http://www.w3.org/1999/xlink" x="0px" y="0px"
	 viewBox="0 0 200 200" enable-background="new 0 0 200 200" xml:space="preserve">
<path fill="#F8D40B" d="M189.9,178.8V17c0-4.6-3.7-8.3-8.3-8.3h-14.7H31.7H17c-4.6,0-8.2,3.7-8.3,8.2v147.1l0,14.8
	c0,4.6,3.7,8.2,8.3,8.2h91.4v-71.6H84.8V90.8h23.6V64c0-16.1,14.6-26.8,26.3-26.8h26.4v22.4h-12.2c-6,0-14,4.9-14,10.9v20.3h23.8
	v24.7h-23.8v71.6h32h14.7C186.2,187.1,189.9,183.4,189.9,178.8z"/>
</svg>
