<?xml version="1.0" encoding="utf-8"?>
<!-- Generator: Adobe Illustrator 18.1.1, SVG Export Plug-In . SVG Version: 6.00 Build 0)  -->
<svg version="1.1" id="Layer_1" xmlns="http://www.w3.org/2000/svg" xmlns:xlink="http://www.w3.org/1999/xlink" x="0px" y="0px"
	 viewBox="0 0 50 25" enable-background="new 0 0 50 25" xml:space="preserve">
<g>
	<path fill="#F8D40E" d="M45.6,0.8H4.4C4.3,3,2.9,3.9,1.4,4v17c1.5,0.1,2.9,1,3,3.2h41.2c0.1-2.2,1.5-3.1,3-3.2V4
		C47.1,3.9,45.7,3,45.6,0.8z M12,18.5H8.8V5.6H12V18.5z M23.7,18.5H21v-7.3l-1.3,7.3h-2l-1.3-7.3v7.3h-2.9V5.6h4.1l1.1,6.1l0.7-6.1
		h4.3V18.5z M33.1,16c0,0.8-0.3,1.4-0.8,1.9c-0.6,0.4-1.2,0.7-3.3,0.7h-3.6V5.6H29c2.1,0,2.6,0.2,3.2,0.6c0.6,0.4,0.9,1.1,0.9,1.9
		V16z M41.4,9.4V17c0,0.5-0.2,0.9-0.7,1.3c-0.4,0.2-0.7,0.2-1.5,0.2c-0.8,0-1.9-0.5-2.1-0.6c-0.2-0.1-0.4,0.7-0.4,0.7h-2.6V5.6h3.2
		v3c0.3-0.4,1.2-0.9,2.1-0.9C40.4,7.7,41.5,8.4,41.4,9.4z"/>
	<path fill="#F8D40E" d="M37.8,9.3c-0.3,0-0.5,0.2-0.5,0.5l0,6.5c0,0.3,0.2,0.5,0.5,0.5c0.3,0,0.4-0.2,0.4-0.5l0-6.5
		C38.2,9.5,38.1,9.3,37.8,9.3z"/>
	<path fill="#F8D40E" d="M28.5,7.7v8.7c0.5,0,1.2,0.1,1.2-0.5V8.2C29.7,7.6,29,7.7,28.5,7.7z"/>
</g>
</svg>
