<?xml version="1.0" encoding="utf-8"?>
<!-- Generator: Adobe Illustrator 18.1.1, SVG Export Plug-In . SVG Version: 6.00 Build 0)  -->
<svg version="1.1" id="Layer_1" xmlns="http://www.w3.org/2000/svg" xmlns:xlink="http://www.w3.org/1999/xlink" x="0px" y="0px"
	 viewBox="0 0 50 50" enable-background="new 0 0 50 50" xml:space="preserve">
<path fill="#F8D40B" d="M2.1,2v45.9H48V2H2.1z M37.2,18.7c0,0.3,0,0.5,0,0.8c0,8.3-6.3,17.9-17.9,17.9c-3.5,0-6.8-1-9.6-2.8
	c0.5,0.1,1,0.1,1.5,0.1c2.9,0,5.7-1,7.8-2.7c-2.7-0.1-5.1-1.9-5.9-4.4c0.4,0.1,0.8,0.1,1.2,0.1c0.6,0,1.1-0.1,1.7-0.2
	c-2.9-0.6-5-3.1-5-6.2c0,0,0-0.1,0-0.1c0.8,0.5,1.8,0.8,2.8,0.8c-1.7-1.1-2.8-3-2.8-5.2c0-1.2,0.3-2.2,0.9-3.2
	c3.1,3.8,7.7,6.3,12.9,6.6c-0.1-0.5-0.2-0.9-0.2-1.4c0-3.5,2.8-6.3,6.3-6.3c1.8,0,3.4,0.8,4.6,2c1.4-0.3,2.8-0.8,4-1.5
	c-0.5,1.5-1.5,2.7-2.8,3.5c1.3-0.2,2.5-0.5,3.6-1C39.5,16.7,38.4,17.8,37.2,18.7z"/>
</svg>
